<?xml version="1.0" encoding="iso-8859-1"?>
<!-- Generator: Adobe Illustrator 16.0.0, SVG Export Plug-In . SVG Version: 6.00 Build 0)  -->
<!DOCTYPE svg PUBLIC "-//W3C//DTD SVG 1.1//EN" "http://www.w3.org/Graphics/SVG/1.1/DTD/svg11.dtd">
<svg version="1.1" id="Capa_1" xmlns="http://www.w3.org/2000/svg" xmlns:xlink="http://www.w3.org/1999/xlink" x="0px" y="0px"
	 width="65.3px" height="65.3px" viewBox="0 0 65.3 65.3" style="enable-background:new 0 0 65.3 65.3;" xml:space="preserve">
<g>
	<g>
		<g>
			<path d="M35.853,65.3c-18.089,0-32.805-14.565-32.805-32.655C3.048,14.791,17.573,0,35.427,0c0.01,0,0.018,0,0.025,0
				c0.757,0,1.449,0.278,1.789,0.957c0.343,0.686,0.263,1.434-0.205,2.041c-3.918,5.078-5.988,11.117-5.988,17.534
				c0,15.883,12.922,28.785,28.805,28.785l0.369-0.018c0.727-0.01,1.475,0.412,1.817,1.1c0.344,0.687,0.265,1.506-0.205,2.113
				C55.566,60.641,46.094,65.3,35.853,65.3z M31.475,4.034C17.688,6.162,7.048,18.177,7.048,32.496
				C7.048,48.378,19.97,61.3,35.853,61.3c7.643,0,14.795-2.957,20.15-8.226c-16.282-1.911-28.955-15.793-28.955-32.58
				C27.048,14.629,28.568,9.013,31.475,4.034z"/>
		</g>
		<g>
			<path d="M37.349,58.464c-13.139,0-24.312-9.381-26.567-22.308c-0.095-0.543,0.27-1.063,0.813-1.156
				c0.552-0.094,1.063,0.27,1.157,0.812c2.087,11.967,12.432,20.651,24.597,20.651c0.553,0,1,0.446,1,1S37.902,58.464,37.349,58.464
				z"/>
		</g>
		<g>
			<path d="M11.416,34c-0.53,0-0.973-0.492-0.998-1.027c-0.022-0.463-0.034-0.97-0.034-1.439c0-0.553,0.447-1.019,1-1.019
				c0.553,0,1,0.438,1,0.991c0,0.438,0.012,0.943,0.032,1.377C12.441,33.436,12.017,34,11.464,34C11.447,34,11.431,34,11.416,34z"/>
		</g>
		<circle cx="40.41" cy="18.442" r="1.782"/>
		<circle cx="51.992" cy="9.888" r="1.782"/>
		<circle cx="48.117" cy="25.851" r="1.782"/>
	</g>
</g>
<g>
</g>
<g>
</g>
<g>
</g>
<g>
</g>
<g>
</g>
<g>
</g>
<g>
</g>
<g>
</g>
<g>
</g>
<g>
</g>
<g>
</g>
<g>
</g>
<g>
</g>
<g>
</g>
<g>
</g>
</svg>
